<?xml version="1.0" encoding="utf-8"?>
<!-- Generator: Adobe Illustrator 17.0.0, SVG Export Plug-In . SVG Version: 6.00 Build 0)  -->
<!DOCTYPE svg PUBLIC "-//W3C//DTD SVG 1.1 Tiny//EN" "http://www.w3.org/Graphics/SVG/1.1/DTD/svg11-tiny.dtd">
<svg version="1.1" baseProfile="tiny" id="Layer_1" xmlns="http://www.w3.org/2000/svg" xmlns:xlink="http://www.w3.org/1999/xlink"
	 x="0px" y="0px" width="512px" height="512px" viewBox="0 0 512 512" overflow="visible" xml:space="preserve">
<path d="M256.5,384.5c-141.385,0-206.223-128-206.223-128s64.838-128,206.223-128s206.223,128,206.223,128
	S397.885,384.5,256.5,384.5z M256.5,156.944c-117.821,0-170.667,99.556-170.667,99.556s52.846,99.556,170.667,99.556
	S427.167,256.5,427.167,256.5S374.321,156.944,256.5,156.944z M256.5,313.389c-31.418,0-56.889-25.47-56.889-56.889
	c0-2.314,0.179-4.584,0.448-6.825c5.868,4.273,13.071,6.825,20.887,6.825c19.636,0,35.556-15.919,35.556-35.556
	c0-7.816-2.552-15.017-6.825-20.887c2.241-0.269,4.511-0.448,6.825-0.448c31.418,0,56.889,25.47,56.889,56.889
	S287.918,313.389,256.5,313.389z"/>
</svg>
